<svg id="Layer_1" enable-background="new 0 0 512 512" height="512" viewBox="0 0 512 512" width="512" xmlns="http://www.w3.org/2000/svg"><g><g><path d="m213.083 144.5h190.417c8.284 0 15 6.716 15 15 0 8.284-6.716 15-15 15h-160.25z" fill="#f0e5e0"/><path d="m418.5 159.5c0 4.14-1.68 7.89-4.4 10.6-2.71 2.72-6.46 4.4-10.6 4.4h-30c4.14 0 7.89-1.68 10.6-4.4 2.72-2.71 4.4-6.46 4.4-10.6 0-8.28-6.72-15-15-15h30c8.28 0 15 6.72 15 15z" fill="#e2d6d1"/><path d="m256 504.5h147.5c8.284 0 15-6.716 15-15 0-8.284-6.716-15-15-15h-146.417z" fill="#f0e5e0"/><path d="m418.5 489.5c0 8.28-6.72 15-15 15h-30c8.28 0 15-6.72 15-15 0-4.14-1.68-7.89-4.4-10.6-2.71-2.72-6.46-4.4-10.6-4.4h30c4.14 0 7.89 1.68 10.6 4.4 2.72 2.71 4.4 6.46 4.4 10.6z" fill="#e2d6d1"/><path d="m269.667 474.5h133.833l12.889-25.777c1.389-2.777 2.111-5.839 2.111-8.944v-230.558c0-3.105-.723-6.167-2.111-8.944l-12.889-25.777h-154.5z" fill="#faf2f3"/><path d="m418.5 209.22v230.56c0 3.1-.72 6.17-2.11 8.94l-12.89 25.78h-30l12.89-25.78c.67-1.34 1.19-2.76 1.55-4.22.19-.79.33-1.59.43-2.4.09-.77.13-1.54.13-2.32v-230.56c0-.78-.04-1.55-.13-2.32-.1-.81-.24-1.61-.43-2.4-.36-1.46-.88-2.88-1.55-4.22l-12.89-25.78h30l12.89 25.78c1.39 2.77 2.11 5.84 2.11 8.94z" fill="#f0e5e0"/><path d="m338.5 114.5h-23c-5.523 0-10 4.477-10 10v20h43v-20c0-5.523-4.477-10-10-10z" fill="#faf2f3"/><path d="m418.5 209.22v230.56c0 1.59-.19 3.18-.56 4.72h-150.34l-16.53-240h166.87c.37 1.54.56 3.13.56 4.72z" fill="#c3aff0"/><path d="m418.5 209.22v230.56c0 1.59-.19 3.18-.56 4.72h-30c.37-1.54.56-3.13.56-4.72v-230.56c0-1.59-.19-3.18-.56-4.72h30c.37 1.54.56 3.13.56 4.72z" fill="#a69ded"/><path d="m327 365c-22.368 0-40.5-18.132-40.5-40.5 0-22.368 18.132-40.5 40.5-40.5 22.368 0 40.5 18.132 40.5 40.5 0 22.368-18.132 40.5-40.5 40.5z" fill="#a69ded"/><path d="m232.389 122.747-12.889-70.247h-59l-12.889 70.247c-3.514 19.15-15.328 35.525-31.868 45.795-13.353 8.29-22.243 23.086-22.243 39.958v266c0 16.569 13.431 30 30 30h133c16.569 0 30-13.431 30-30v-266c0-16.872-8.891-31.668-22.242-39.958-16.541-10.27-28.355-26.645-31.869-45.795z" fill="#d19a6e"/><path d="m286.5 208.5v266c0 16.57-13.43 30-30 30h-30c16.57 0 30-13.43 30-30v-266c0-16.87-8.89-31.67-22.24-39.96-16.54-10.27-28.36-26.64-31.87-45.79l-12.89-70.25h30l12.89 70.25c3.51 19.15 15.33 35.52 31.87 45.79 13.35 8.29 22.24 23.09 22.24 39.96z" fill="#bc845e"/><path d="m224.5 52.5h-69c-5.523 0-10-4.477-10-10v-10c0-5.523 4.477-10 10-10h69c5.523 0 10 4.477 10 10v10c0 5.523-4.477 10-10 10z" fill="#bc845e"/><path d="m234.5 32.5v10c0 5.52-4.48 10-10 10h-30c5.52 0 10-4.48 10-10v-10c0-5.52-4.48-10-10-10h30c5.52 0 10 4.48 10 10z" fill="#ad775c"/><path d="m256.765 254c-10.442 0-19.558-6.645-23.245-16.415-6.635-17.581-23.617-30.085-43.52-30.085-19.903 0-36.885 12.504-43.52 30.085-3.687 9.769-7.803 16.415-18.245 16.415h-34.735v149h34.735c10.442 0 14.558 6.645 18.245 16.415 6.635 17.581 23.617 30.085 43.52 30.085 19.903 0 36.885-12.504 43.52-30.085 3.687-9.769 12.803-16.415 23.245-16.415h29.735v-149z" fill="#ccf49f"/><path d="m286.5 254v149h-29.74c-.09 0-.17 0-.26.01v-149.02c.09.01.17.01.26.01z" fill="#b3e59f"/><path d="m190 399.5c-9.113 0-16.5-7.387-16.5-16.5v-109c0-9.113 7.387-16.5 16.5-16.5 9.113 0 16.5 7.387 16.5 16.5v109c0 9.113-7.387 16.5-16.5 16.5z" fill="#95d6a4"/></g><g><path d="m214 383v-109c0-13.234-10.766-24-24-24s-24 10.766-24 24v109c0 13.234 10.766 24 24 24s24-10.766 24-24zm-33 0v-109c0-4.962 4.038-9 9-9s9 4.038 9 9v109c0 4.962-4.038 9-9 9s-9-4.038-9-9z"/><path d="m151 366v-75c0-4.142-3.358-7.5-7.5-7.5s-7.5 3.358-7.5 7.5v75c0 4.142 3.358 7.5 7.5 7.5s7.5-3.358 7.5-7.5z"/><path d="m244 366v-75c0-4.142-3.358-7.5-7.5-7.5s-7.5 3.358-7.5 7.5v75c0 4.142 3.358 7.5 7.5 7.5s7.5-3.358 7.5-7.5z"/><path d="m414.262 179.254c6.988-3.822 11.738-11.243 11.738-19.754 0-12.407-10.094-22.5-22.5-22.5h-47.5v-12.5c0-9.649-7.851-17.5-17.5-17.5h-23c-9.649 0-17.5 7.851-17.5 17.5v12.5h-52.962c-2.477-4.931-4.275-10.173-5.272-15.606l-11.349-61.852c7.767-1.786 13.583-8.741 13.583-17.042v-10c0-8.859-6.622-16.183-15.173-17.327-1.144-8.551-8.468-15.173-17.327-15.173h-39c-8.859 0-16.183 6.622-17.327 15.173-8.551 1.144-15.173 8.468-15.173 17.327v10c0 8.301 5.816 15.256 13.583 17.042l-11.349 61.852c-3.042 16.578-13.411 31.44-28.448 40.776-16.146 10.026-25.786 27.346-25.786 46.33v45.5c0 4.142 3.358 7.5 7.5 7.5h34.735c17.236 0 22.657-14.364 25.262-21.267 5.696-15.092 20.365-25.233 36.503-25.233s30.807 10.141 36.503 25.233c4.875 12.919 16.754 21.267 30.262 21.267h22.235v134h-22.235c-13.508 0-25.386 8.348-30.262 21.267-5.696 15.092-20.365 25.233-36.503 25.233s-30.807-10.141-36.503-25.233c-2.605-6.903-8.025-21.267-25.262-21.267h-27.235v-106.5c0-4.142-3.358-7.5-7.5-7.5s-7.5 3.358-7.5 7.5v185.5c0 20.678 16.822 37.5 37.5 37.5h280c12.406 0 22.5-10.093 22.5-22.5 0-8.511-4.75-15.932-11.738-19.754l8.835-17.669c1.899-3.798 2.903-8.051 2.903-12.298v-230.558c0-4.247-1.004-8.5-2.903-12.298zm-120.262 257.746v-77.692c8.609 8.166 20.225 13.192 33 13.192 26.468 0 48-21.533 48-48s-21.532-48-48-48c-12.775 0-24.391 5.026-33 13.192v-77.692h117v225zm0-112.5c0-18.196 14.804-33 33-33s33 14.804 33 33-14.804 33-33 33-33-14.804-33-33zm104.865-142.5 7.5 15h-113.595c-1.128-5.287-3.005-10.339-5.596-15zm12.135-22.5c0 4.136-3.364 7.5-7.5 7.5h-128.689c-2.061-1.747-4.251-3.374-6.597-4.83-4.664-2.896-8.876-6.325-12.563-10.17h147.849c4.136 0 7.5 3.364 7.5 7.5zm-98-35c0-1.378 1.121-2.5 2.5-2.5h23c1.379 0 2.5 1.122 2.5 2.5v12.5h-28zm-160-92c0-1.378 1.122-2.5 2.5-2.5h69c1.378 0 2.5 1.122 2.5 2.5v10c0 1.378-1.122 2.5-2.5 2.5h-69c-1.378 0-2.5-1.122-2.5-2.5zm103.765 214c-7.207 0-13.577-4.539-16.228-11.563-7.886-20.897-28.196-34.937-50.537-34.937s-42.651 14.04-50.537 34.938c-3.704 9.815-6.162 11.563-11.228 11.563h-27.235v-38c0-13.761 6.99-26.316 18.698-33.587 18.624-11.563 31.486-30.083 35.29-50.813l11.761-64.101h46.502l11.761 64.101c3.804 20.729 16.666 39.25 35.29 50.813 11.708 7.269 18.698 19.825 18.698 33.586v38zm-133.265 250.5c-12.407 0-22.5-10.093-22.5-22.5v-64h27.235c5.066 0 7.523 1.747 11.228 11.563 7.886 20.897 28.196 34.937 50.537 34.937s42.651-14.04 50.537-34.938c2.65-7.024 9.02-11.563 16.228-11.563h22.235v64c0 12.407-10.094 22.5-22.5 22.5h-133zm280 0h-117.02c3.282-4.363 5.637-9.461 6.766-15h59.254c4.143 0 7.5-3.358 7.5-7.5s-3.357-7.5-7.5-7.5h-58.5v-15h112.365l-7.5 15h-11.365c-4.143 0-7.5 3.358-7.5 7.5s3.357 7.5 7.5 7.5h15.968c.009 0 .017.001.026.001.005 0 .01-.001.015-.001 4.132.005 7.491 3.367 7.491 7.5 0 4.136-3.364 7.5-7.5 7.5z"/></g></g></svg>