<?xml version="1.0" encoding="UTF-8"?>
<svg xmlns="http://www.w3.org/2000/svg" xmlns:xlink="http://www.w3.org/1999/xlink" width="512" height="512" viewBox="0 0 60 60" version="1.1"><!-- Generator: Sketch 51.3 (57544) - http://www.bohemiancoding.com/sketch --><title>013 - Boiler</title><desc>Created with Sketch.</desc><defs/><g id="Page-1" stroke="none" stroke-width="1" fill="none" fill-rule="evenodd"><g id="013---Boiler" transform="translate(1.000000, 1.000000)"><path d="M8,50 L8,57 C8,57.5522847 7.55228475,58 7,58 L5,58 C4.44771525,58 4,57.5522847 4,57 L4,50 L8,50 Z" id="Shape" fill="#37474F" fill-rule="nonzero"/><path d="M22,50 L22,57 C22,57.5522847 21.5522847,58 21,58 L19,58 C18.4477153,58 18,57.5522847 18,57 L18,50 L22,50 Z" id="Shape" fill="#37474F" fill-rule="nonzero"/><path d="M40,50 L40,57 C40,57.5522847 39.5522847,58 39,58 L37,58 C36.4477153,58 36,57.5522847 36,57 L36,50 L40,50 Z" id="Shape" fill="#37474F" fill-rule="nonzero"/><path d="M54,50 L54,57 C54,57.5522847 53.5522847,58 53,58 L51,58 C50.4477153,58 50,57.5522847 50,57 L50,50 L54,50 Z" id="Shape" fill="#37474F" fill-rule="nonzero"/><path d="M6,50 L6,57 C6,57.5522847 5.55228475,58 5,58 C4.44771525,58 4,57.5522847 4,57 L4,50 L6,50 Z" id="Shape" fill="#545C60" fill-rule="nonzero"/><path d="M20,50 L20,57 C20,57.5522847 19.5522847,58 19,58 C18.4477153,58 18,57.5522847 18,57 L18,50 L20,50 Z" id="Shape" fill="#545C60" fill-rule="nonzero"/><path d="M38,50 L38,57 C38,57.5522847 37.5522847,58 37,58 C36.4477153,58 36,57.5522847 36,57 L36,50 L38,50 Z" id="Shape" fill="#545C60" fill-rule="nonzero"/><path d="M52,50 L52,57 C52,57.5522847 51.5522847,58 51,58 C50.4477153,58 50,57.5522847 50,57 L50,50 L52,50 Z" id="Shape" fill="#545C60" fill-rule="nonzero"/><path d="M15,14.14 L15,8 C15,7.44771525 14.5522847,7 14,7 L12,7 C11.4477153,7 11,7.44771525 11,8 L11,14.14 L15,14.14 Z" id="Shape" fill="#FF9801" fill-rule="nonzero"/><path d="M24,21 L24,51 C24,51.5522847 23.5522847,52 23,52 L3,52 C2.44771525,52 2,51.5522847 2,51 L2,21 L24,21 Z" id="Shape" fill="#707070" fill-rule="nonzero"/><path d="M24,19 L13,21 L11.5,20.73 L2,19 L2.76,18.24 C5.11040311,15.8925541 8.19596861,14.4239096 11.5,14.08 C12,14.03 12.5,14 13,14 C16.8407534,13.9984302 20.5245866,15.5237674 23.24,18.24 L24,19 Z" id="Shape" fill="#CFD8DC" fill-rule="nonzero"/><path d="M56,21 L56,51 C56,51.5522847 55.5522847,52 55,52 L35,52 C34.4477153,52 34,51.5522847 34,51 L34,21 L56,21 Z" id="Shape" fill="#707070" fill-rule="nonzero"/><path d="M22,21 L22,51 C22,51.5522847 21.5522847,52 21,52 L3,52 C2.44771525,52 2,51.5522847 2,51 L2,21 L22,21 Z" id="Shape" fill="#9E9E9E" fill-rule="nonzero"/><path d="M54,21 L54,51 C54,51.5522847 53.5522847,52 53,52 L35,52 C34.4477153,52 34,51.5522847 34,51 L34,21 L54,21 Z" id="Shape" fill="#9E9E9E" fill-rule="nonzero"/><path d="M56,19 L45.02,21 L43.52,20.73 L34,19 L34.76,18.24 C37.1104031,15.8925541 40.1959686,14.4239096 43.5,14.08 C44,14.03 44.5,14 45,14 C48.8407534,13.9984302 52.5245866,15.5237674 55.24,18.24 L56,19 Z" id="Shape" fill="#CFD8DC" fill-rule="nonzero"/><path d="M21,19 L11.5,20.73 L2,19 L2.76,18.24 C5.11040311,15.8925541 8.19596861,14.4239096 11.5,14.08 C12.8892995,14.2206134 14.2504571,14.564272 15.54,15.1 C17.2978751,15.8274754 18.8950166,16.8945019 20.24,18.24 L21,19 Z" id="Shape" fill="#F5F5F5" fill-rule="nonzero"/><path d="M53,19 L43.52,20.73 L34,19 L34.76,18.24 C37.1104031,15.8925541 40.1959686,14.4239096 43.5,14.08 C44.8892995,14.2206134 46.2504571,14.564272 47.54,15.1 C49.2978751,15.8274754 50.8950166,16.8945019 52.24,18.24 L53,19 Z" id="Shape" fill="#F5F5F5" fill-rule="nonzero"/><path d="M58,21 C57.9918328,22.1011688 57.1011688,22.9918328 56,23 L34,23 C32.8967981,22.9967052 32.0032948,22.1032019 32,21 C32.0081672,19.8988312 32.8988312,19.0081672 34,19 L56,19 C57.1032019,19.0032948 57.9967052,19.8967981 58,21 Z" id="Shape" fill="#545C60" fill-rule="nonzero"/><circle id="Oval" fill="#BDC3C7" fill-rule="nonzero" cx="2" cy="11" r="2"/><circle id="Oval" fill="#BDC3C7" fill-rule="nonzero" cx="7" cy="5" r="2"/><rect id="Rectangle-path" fill="#D84315" fill-rule="nonzero" x="17" y="0" width="8" height="4" rx="1"/><rect id="Rectangle-path" fill="#D84315" fill-rule="nonzero" x="33" y="0" width="8" height="4" rx="1"/><rect id="Rectangle-path" fill="#FF5722" fill-rule="nonzero" x="17" y="0" width="5.67" height="4" rx="1"/><rect id="Rectangle-path" fill="#FF5722" fill-rule="nonzero" x="33" y="0" width="5.67" height="4" rx="1"/><path d="M20,38 L20,43.85 C19.2816691,43.6225622 18.6058881,43.2779139 18,42.83 C17.6470563,42.5778507 17.3128478,42.3004577 17,42 C16.9959203,42.4420064 16.7849431,42.856558 16.43,43.12 C15.3838941,43.709729 14.2008089,44.0132611 13,44 C12.7334323,44.0012646 12.4678448,43.967646 12.21,43.9 C11.99777,43.8564936 11.790166,43.792873 11.59,43.71 C10.6297371,43.3024781 9.75199666,42.7229661 9,42 C8.99800131,42.4397557 8.78623225,42.852148 8.43,43.11 C7.97229159,43.4440536 7.44642227,43.6728409 6.89,43.78 C6.59628339,43.8461554 6.29917481,43.8962299 6,43.93 L6,38 C6,37.4477153 6.44771525,37 7,37 L19,37 C19.1095007,36.9995889 19.218086,37.0199486 19.32,37.06 C19.5150017,37.1189773 19.6842248,37.2423692 19.8,37.41 C19.9306729,37.5788192 20.0010796,37.7865189 20,38 Z" id="Shape" fill="#37474F" fill-rule="nonzero"/><path d="M6.89,43.78 C6.38436967,44.860546 6.09234782,46.0286334 6.03,47.22 C6.00956017,47.1484725 5.99945784,47.0743887 6,47 L6,43.93 C6.29917481,43.8962299 6.59628339,43.8461554 6.89,43.78 Z" id="Shape" fill="#FAC176" fill-rule="nonzero"/><path d="M20,43.85 L20,47 C20,47.5522847 19.5522847,48 19,48 L7,48 C6.75216417,47.999353 6.5133983,47.9066976 6.33,47.74 C6.174243,47.6054391 6.06852509,47.4221947 6.03,47.22 C6.09234782,46.0286334 6.38436967,44.860546 6.89,43.78 C7.44642227,43.6728409 7.97229159,43.4440536 8.43,43.11 C8.78623225,42.852148 8.99800131,42.4397557 9,42 C9.75199666,42.7229661 10.6297371,43.3024781 11.59,43.71 C11.790166,43.792873 11.99777,43.8564936 12.21,43.9 C12.4678448,43.967646 12.7334323,44.0012646 13,44 C14.2008089,44.0132611 15.3838941,43.709729 16.43,43.12 C16.7849431,42.856558 16.9959203,42.4420064 17,42 C17.8540829,42.8268294 18.8777257,43.4580758 20,43.85 Z" id="Shape" fill="#FEC108" fill-rule="nonzero"/><path d="M52,38 L52,43.85 C51.2816691,43.6225622 50.6058881,43.2779139 50,42.83 C49.6470563,42.5778507 49.3128478,42.3004577 49,42 C48.9959203,42.4420064 48.7849431,42.856558 48.43,43.12 C47.3838941,43.709729 46.2008089,44.0132611 45,44 C44.7334323,44.0012646 44.4678448,43.967646 44.21,43.9 C43.99777,43.8564936 43.790166,43.792873 43.59,43.71 C42.6297371,43.3024781 41.7519967,42.7229661 41,42 C40.9980013,42.4397557 40.7862323,42.852148 40.43,43.11 C39.9722916,43.4440536 39.4464223,43.6728409 38.89,43.78 C38.5962834,43.8461554 38.2991748,43.8962299 38,43.93 L38,38 C38,37.4477153 38.4477153,37 39,37 L51,37 C51.1095007,36.9995889 51.218086,37.0199486 51.32,37.06 C51.5150017,37.1189773 51.6842248,37.2423692 51.8,37.41 C51.9306729,37.5788192 52.0010796,37.7865189 52,38 Z" id="Shape" fill="#37474F" fill-rule="nonzero"/><path d="M18,38 L18,43.85 C17.4446776,43.6824003 16.9160414,43.4366013 16.43,43.12 C16.0224665,42.7919756 15.4565021,42.744482 15,43 C15,44.27 13.38,43.73 12.21,43.9 C11.8092929,43.9598046 11.4050885,43.99321 11,44 C10.5158741,43.993515 10.0373888,43.8951032 9.59,43.71 C9.18279369,43.5524923 8.79385629,43.3513178 8.43,43.11 C8.01941748,42.7875779 7.45506375,42.7441661 7,43 C7,43.65 6.57,43.09 6,43.39 L6,38 C6,37.4477153 6.44771525,37 7,37 L17,37 C17.1095007,36.9995889 17.218086,37.0199486 17.32,37.06 C17.5150017,37.1189773 17.6842248,37.2423692 17.8,37.41 C17.9306729,37.5788192 18.0010796,37.7865189 18,38 Z" id="Shape" fill="#545C60" fill-rule="nonzero"/><path d="M50,38 L50,43.85 C49.4446776,43.6824003 48.9160414,43.4366013 48.43,43.12 C47.58,42.58 47,44 47,44 C47,45.27 45.38,43.73 44.21,43.9 C43.8092929,43.9598046 43.4050885,43.99321 43,44 C42.5158741,43.993515 42.0373888,43.8951032 41.59,43.71 C41.1827937,43.5524923 40.7938563,43.3513178 40.43,43.11 C39.58,42.58 39,44 39,44 C39,44.65 38.57,43.09 38,43.39 L38,38 C38,37.4477153 38.4477153,37 39,37 L49,37 C49.1095007,36.9995889 49.218086,37.0199486 49.32,37.06 C49.5150017,37.1189773 49.6842248,37.2423692 49.8,37.41 C49.9306729,37.5788192 50.0010796,37.7865189 50,38 Z" id="Shape" fill="#545C60" fill-rule="nonzero"/><path d="M38.89,43.78 C38.3843697,44.860546 38.0923478,46.0286334 38.03,47.22 C38.0095602,47.1484725 37.9994578,47.0743887 38,47 L38,43.93 C38.2991748,43.8962299 38.5962834,43.8461554 38.89,43.78 Z" id="Shape" fill="#FAC176" fill-rule="nonzero"/><path d="M52,43.85 L52,47 C52,47.5522847 51.5522847,48 51,48 L39,48 C38.7521642,47.999353 38.5133983,47.9066976 38.33,47.74 C38.174243,47.6054391 38.0685251,47.4221947 38.03,47.22 C38.0923478,46.0286334 38.3843697,44.860546 38.89,43.78 C39.4464223,43.6728409 39.9722916,43.4440536 40.43,43.11 C40.7862323,42.852148 40.9980013,42.4397557 41,42 C41.7519967,42.7229661 42.6297371,43.3024781 43.59,43.71 C43.790166,43.792873 43.99777,43.8564936 44.21,43.9 C44.4678448,43.967646 44.7334323,44.0012646 45,44 C46.2008089,44.0132611 47.3838941,43.709729 48.43,43.12 C48.7849431,42.856558 48.9959203,42.4420064 49,42 C49.8540829,42.8268294 50.8777257,43.4580758 52,43.85 Z" id="Shape" fill="#FEC108" fill-rule="nonzero"/><path d="M18,43.85 L18,47 C18,47.5522847 17.5522847,48 17,48 L7,48 C6.75216417,47.999353 6.5133983,47.9066976 6.33,47.74 C6.174243,47.6054391 6.06852509,47.4221947 6.03,47.22 C6.09234782,46.0286334 6.38436967,44.860546 6.89,43.78 C7.44642227,43.6728409 7.97229159,43.4440536 8.43,43.11 C8.79385629,43.3513178 9.18279369,43.5524923 9.59,43.71 C10.0373888,43.8951032 10.5158741,43.993515 11,44 C11.4050885,43.99321 11.8092929,43.9598046 12.21,43.9 C12.4678448,43.967646 12.7334323,44.0012646 13,44 C14.2008089,44.0132611 15.3838941,43.709729 16.43,43.12 C16.9160414,43.4366013 17.4446776,43.6824003 18,43.85 Z" id="Shape" fill="#FFDC00" fill-rule="nonzero"/><path d="M50,43.85 L50,47 C50,47.5522847 49.5522847,48 49,48 L39,48 C38.7521642,47.999353 38.5133983,47.9066976 38.33,47.74 C38.174243,47.6054391 38.0685251,47.4221947 38.03,47.22 C38.0923478,46.0286334 38.3843697,44.860546 38.89,43.78 C39.4464223,43.6728409 39.9722916,43.4440536 40.43,43.11 C40.7938563,43.3513178 41.1827937,43.5524923 41.59,43.71 C42.0373888,43.8951032 42.5158741,43.993515 43,44 C43.4050885,43.99321 43.8092929,43.9598046 44.21,43.9 C44.4678448,43.967646 44.7334323,44.0012646 45,44 C46.2008089,44.0132611 47.3838941,43.709729 48.43,43.12 C48.9160414,43.4366013 49.4446776,43.6824003 50,43.85 Z" id="Shape" fill="#FFDC00" fill-rule="nonzero"/><path d="M16,30 C16,31.6568542 14.6568542,33 13,33 C12.6584234,33.0021256 12.3193958,32.9411006 12,32.82 C10.8019194,32.4003329 9.99979755,31.2694557 9.99979755,30 C9.99979755,28.7305443 10.8019194,27.5996671 12,27.18 C12.3193958,27.0588994 12.6584234,26.9978744 13,27 C14.6568542,27 16,28.3431458 16,30 Z" id="Shape" fill="#CFD8DC" fill-rule="nonzero"/><path d="M48,30 C48,31.6568542 46.6568542,33 45,33 C44.6584234,33.0021256 44.3193958,32.9411006 44,32.82 C42.8019194,32.4003329 41.9997976,31.2694557 41.9997976,30 C41.9997976,28.7305443 42.8019194,27.5996671 44,27.18 C44.3193958,27.0588994 44.6584234,26.9978744 45,27 C46.6568542,27 48,28.3431458 48,30 Z" id="Shape" fill="#CFD8DC" fill-rule="nonzero"/><ellipse id="Oval" fill="#F5F5F5" fill-rule="nonzero" cx="12" cy="30" rx="2" ry="2.82"/><ellipse id="Oval" fill="#F5F5F5" fill-rule="nonzero" cx="44" cy="30" rx="2" ry="2.82"/><path d="M26,21 C25.9918328,22.1011688 25.1011688,22.9918328 24,23 L2,23 C0.896798134,22.9967052 0.00329480111,22.1032019 1.20072002e-16,21 C-0.00282306649,20.4694095 0.210141102,19.9604612 0.59,19.59 C0.9604612,19.2101411 1.46940947,18.9971769 2,19 L24,19 C25.1032019,19.0032948 25.9967052,19.8967981 26,21 Z" id="Shape" fill="#545C60" fill-rule="nonzero"/><path d="M55.69,21 C55.6877672,21.5295768 55.4755878,22.0366497 55.1,22.41 C54.7295388,22.7898589 54.2205905,23.0028231 53.69,23 L34,23 C32.8967981,22.9967052 32.0032948,22.1032019 32,21 C32.0081672,19.8988312 32.8988312,19.0081672 34,19 L53.69,19 C54.7932019,19.0032948 55.6867052,19.8967981 55.69,21 Z" id="Shape" fill="#7F8E94" fill-rule="nonzero"/><path d="M23.69,21 C23.6877672,21.5295768 23.4755878,22.0366497 23.1,22.41 C22.7295388,22.7898589 22.2205905,23.0028231 21.69,23 L2,23 C0.896798134,22.9967052 0.00329480111,22.1032019 1.20075391e-16,21 C-0.00282306649,20.4694095 0.210141102,19.9604612 0.59,19.59 C0.9604612,19.2101411 1.46940947,18.9971769 2,19 L21.69,19 C22.7932019,19.0032948 23.6867052,19.8967981 23.69,21 Z" id="Shape" fill="#7F8E94" fill-rule="nonzero"/><path d="M2,23 L24,23 L24,51 C24,51.5522847 23.5522847,52 23,52 L3,52 C2.44771525,52 2,51.5522847 2,51 L2,23 Z" id="Shape" stroke="#000000" stroke-width="2" stroke-linecap="round" stroke-linejoin="round"/><path d="M24,19 L2,19 L2.757,18.243 C5.47352891,15.5262368 9.15808229,13.9999691 13,14 C16.8419177,13.9999691 20.5264711,15.5262368 23.243,18.243 L24,19 Z" id="Shape" stroke="#000000" stroke-width="2" stroke-linecap="round" stroke-linejoin="round"/><rect id="Rectangle-path" stroke="#000000" stroke-width="2" stroke-linecap="round" stroke-linejoin="round" x="0" y="19" width="26" height="4" rx="2"/><path d="M34,23 L56,23 L56,51 C56,51.5522847 55.5522847,52 55,52 L35,52 C34.4477153,52 34,51.5522847 34,51 L34,23 Z" id="Shape" stroke="#000000" stroke-width="2" stroke-linecap="round" stroke-linejoin="round"/><path d="M56,19 L34,19 L34.757,18.243 C37.4735289,15.5262368 41.1580823,13.9999691 45,14 C48.8419177,13.9999691 52.5264711,15.5262368 55.243,18.243 L56,19 Z" id="Shape" stroke="#000000" stroke-width="2" stroke-linecap="round" stroke-linejoin="round"/><rect id="Rectangle-path" stroke="#000000" stroke-width="2" stroke-linecap="round" stroke-linejoin="round" x="32" y="19" width="26" height="4" rx="2"/><circle id="Oval" stroke="#000000" stroke-width="2" stroke-linecap="round" stroke-linejoin="round" cx="2" cy="11" r="2"/><circle id="Oval" stroke="#000000" stroke-width="2" stroke-linecap="round" stroke-linejoin="round" cx="7" cy="5" r="2"/><path d="M11,11 L4,11" id="Shape" stroke="#000000" stroke-width="2" stroke-linecap="round" stroke-linejoin="round"/><path d="M15,14.14 L15,8 C15,7.44771525 14.5522847,7 14,7 L12,7 C11.4477153,7 11,7.44771525 11,8 L11,14.14" id="Shape" stroke="#000000" stroke-width="2" stroke-linecap="round" stroke-linejoin="round"/><path d="M17,2 L15,2 C13.8954305,2 13,2.8954305 13,4 L13,7" id="Shape" stroke="#000000" stroke-width="2" stroke-linecap="round" stroke-linejoin="round"/><rect id="Rectangle-path" stroke="#000000" stroke-width="2" stroke-linecap="round" stroke-linejoin="round" x="17" y="0" width="8" height="4" rx="1"/><rect id="Rectangle-path" stroke="#000000" stroke-width="2" stroke-linecap="round" stroke-linejoin="round" x="33" y="0" width="8" height="4" rx="1"/><path d="M41,2 L43,2 C44.1045695,2 45,2.8954305 45,4 L45,14" id="Shape" stroke="#000000" stroke-width="2" stroke-linecap="round" stroke-linejoin="round"/><path d="M25,2 L27,2 C28.1045695,2 29,2.8954305 29,4 L29,44 C29,45.1045695 29.8954305,46 31,46 L34,46" id="Shape" stroke="#000000" stroke-width="2" stroke-linecap="round" stroke-linejoin="round"/><path d="M7,11 L7,8" id="Shape" stroke="#000000" stroke-width="2" stroke-linecap="round" stroke-linejoin="round"/><path d="M24,46 L27,46 C28.1045695,46 29,45.1045695 29,44 L29,4 C29,2.8954305 29.8954305,2 31,2 L33,2" id="Shape" stroke="#000000" stroke-width="2" stroke-linecap="round" stroke-linejoin="round"/><rect id="Rectangle-path" stroke="#000000" stroke-width="2" stroke-linecap="round" stroke-linejoin="round" x="6" y="37" width="14" height="11" rx="1"/><path d="M6,43.93 C7.18,43.79 9,43.35 9,42 C9,42 11,44 13,44" id="Shape" stroke="#000000" stroke-width="2" stroke-linecap="round" stroke-linejoin="round"/><path d="M13,44 C13,44 17,44 17,42 C17.8540829,42.8268294 18.8777257,43.4580758 20,43.85" id="Shape" stroke="#000000" stroke-width="2" stroke-linecap="round" stroke-linejoin="round"/><rect id="Rectangle-path" stroke="#000000" stroke-width="2" stroke-linecap="round" stroke-linejoin="round" x="38" y="37" width="14" height="11" rx="1"/><path d="M38,43.93 C39.18,43.79 41,43.35 41,42 C41,42 43,44 45,44" id="Shape" stroke="#000000" stroke-width="2" stroke-linecap="round" stroke-linejoin="round"/><path d="M45,44 C45,44 49,44 49,42 C49.8540829,42.8268294 50.8777257,43.4580758 52,43.85" id="Shape" stroke="#000000" stroke-width="2" stroke-linecap="round" stroke-linejoin="round"/><circle id="Oval" stroke="#000000" stroke-width="2" stroke-linecap="round" stroke-linejoin="round" cx="13" cy="30" r="3"/><circle id="Oval" stroke="#000000" stroke-width="2" stroke-linecap="round" stroke-linejoin="round" cx="45" cy="30" r="3"/><path d="M4,52 L8,52 L8,57 C8,57.5522847 7.55228475,58 7,58 L5,58 C4.44771525,58 4,57.5522847 4,57 L4,52 Z" id="Shape" stroke="#000000" stroke-width="2" stroke-linecap="round" stroke-linejoin="round"/><path d="M18,52 L22,52 L22,57 C22,57.5522847 21.5522847,58 21,58 L19,58 C18.4477153,58 18,57.5522847 18,57 L18,52 Z" id="Shape" stroke="#000000" stroke-width="2" stroke-linecap="round" stroke-linejoin="round"/><path d="M36,52 L40,52 L40,57 C40,57.5522847 39.5522847,58 39,58 L37,58 C36.4477153,58 36,57.5522847 36,57 L36,52 Z" id="Shape" stroke="#000000" stroke-width="2" stroke-linecap="round" stroke-linejoin="round"/><path d="M50,52 L54,52 L54,57 C54,57.5522847 53.5522847,58 53,58 L51,58 C50.4477153,58 50,57.5522847 50,57 L50,52 Z" id="Shape" stroke="#000000" stroke-width="2" stroke-linecap="round" stroke-linejoin="round"/></g></g></svg>
