<svg height="512pt" viewBox="0 0 512 512" width="512pt" xmlns="http://www.w3.org/2000/svg"><path d="m512 256c0 141.386719-114.613281 256-256 256s-256-114.613281-256-256 114.613281-256 256-256 256 114.613281 256 256zm0 0" fill="#414952"/><path d="m512 256c0-16.515625-1.582031-32.660156-4.570312-48.304688l-121.515626-121.515624-291.507812 123.296874-11.300781 165.4375 134.171875 134.171876c12.628906 1.917968 25.558594 2.914062 38.722656 2.914062 141.386719 0 256-114.613281 256-256zm0 0" fill="#333940"/><path d="m157 389.5h-38.0625c-28.363281 0-51.4375-23.074219-51.4375-51.4375v-119.125c0-28.363281 23.074219-51.4375 51.4375-51.4375h38.0625v45h-38.0625c-3.550781 0-6.4375 2.886719-6.4375 6.4375v119.125c0 3.550781 2.886719 6.4375 6.4375 6.4375h38.0625zm0 0" fill="#ffa300"/><path d="m139.035156 148.292969h233.929688v279.410156h-233.929688zm0 0" fill="#ffc612"/><path d="m255.90625 148.292969h117.058594v279.410156h-117.058594zm0 0" fill="#fc9e15"/><path d="m191.5625 390.34375c-11.664062 0-21.117188-9.457031-21.117188-21.121094v-162.445312c0-11.664063 9.453126-21.121094 21.117188-21.121094s21.117188 9.457031 21.117188 21.121094v162.445312c0 11.664063-9.453126 21.121094-21.117188 21.121094zm0 0" fill="#ffa300"/><path d="m320.4375 390.34375c-11.664062 0-21.117188-9.457031-21.117188-21.121094v-162.445312c0-11.664063 9.453126-21.121094 21.117188-21.121094s21.117188 9.457031 21.117188 21.121094v162.445312c0 11.664063-9.453126 21.121094-21.117188 21.121094zm0 0" fill="#ff7f00"/><path d="m256 390.34375c-11.664062 0-21.117188-9.457031-21.117188-21.121094v-162.445312c0-11.664063 9.453126-21.121094 21.117188-21.121094s21.117188 9.457031 21.117188 21.121094v162.445312c0 11.664063-9.453126 21.121094-21.117188 21.121094zm0 0" fill="#ffa300"/><path d="m256 185.65625c-.03125 0-.0625.007812-.09375.007812v204.675782c.03125 0 .0625.003906.09375.003906 11.664062 0 21.117188-9.457031 21.117188-21.117188v-162.449218c0-11.664063-9.453126-21.121094-21.117188-21.121094zm0 0" fill="#ff7f00"/><path d="m333.101562 62.019531c-4.988281 0-9.835937.515625-14.5 1.460938-13.378906-18.152344-36.5-30.160157-62.792968-30.160157-26.109375 0-49.089844 11.832032-62.515625 29.773438-4.03125-.699219-8.195313-1.074219-12.457031-1.074219-35.773438 0-64.773438 25.699219-64.773438 57.402344 0 31.699219 29 57.398437 64.773438 57.398437 6.839843 0 13.425781-.953124 19.613281-2.699218 13.890625 10.375 33.601562 16.863281 55.480469 16.863281 22.1875 0 42.15625-6.667969 56.070312-17.296875 6.617188 2.019531 13.710938 3.132812 21.101562 3.132812 35.773438 0 64.773438-25.699218 64.773438-57.398437 0-31.703125-29-57.402344-64.773438-57.402344zm0 0" fill="#fff"/><path d="m333.101562 62.019531c-4.988281 0-9.835937.515625-14.5 1.460938-13.363281-18.128907-36.441406-30.128907-62.695312-30.160157v157.664063h.023438c22.1875 0 42.15625-6.667969 56.070312-17.296875 6.617188 2.019531 13.710938 3.128906 21.101562 3.128906 35.773438 0 64.773438-25.699218 64.773438-57.398437s-29-57.398438-64.773438-57.398438zm0 0" fill="#e9edf5"/></svg>