<svg enable-background="new 0 0 468.075 468.075" viewBox="0 0 468.075 468.075" xmlns="http://www.w3.org/2000/svg"><path d="m400.352 334.783v-125.07h41.608c5.799 0 10.5-4.701 10.5-10.5s-4.701-10.5-10.5-10.5h-41.608v-57.1c0-5.799-4.701-10.5-10.5-10.5s-10.5 4.701-10.5 10.5v57.1h-26.464v-57.1c0-5.799-4.701-10.5-10.5-10.5s-10.5 4.701-10.5 10.5v57.1h-27.535v-57.1c0-5.799-4.701-10.5-10.5-10.5s-10.5 4.701-10.5 10.5v57.1h-14.569v-57.1c0-5.799-4.701-10.5-10.5-10.5s-10.5 4.701-10.5 10.5v57.1h-20.429v-57.1c0-5.799-4.701-10.5-10.5-10.5s-10.5 4.701-10.5 10.5v57.1h-14.886v-57.1c0-5.799-4.701-10.5-10.5-10.5s-10.5 4.701-10.5 10.5v57.1h-20.466v-57.1c0-5.799-4.701-10.5-10.5-10.5s-10.5 4.701-10.5 10.5v57.1h-16.561v-57.1c0-5.799-4.701-10.5-10.5-10.5s-10.5 4.701-10.5 10.5v57.1h-11.155v-57.1c0-5.799-4.701-10.5-10.5-10.5s-10.5 4.701-10.5 10.5v57.1h-42.602c-5.799 0-10.5 4.701-10.5 10.5s4.701 10.5 10.5 10.5h42.602v125.07c0 5.799 4.701 10.5 10.5 10.5s10.5-4.701 10.5-10.5v-125.07h11.154v73.851c0 5.799 4.701 10.5 10.5 10.5s10.5-4.701 10.5-10.5v-73.851h16.561v73.851c0 5.799 4.701 10.5 10.5 10.5s10.5-4.701 10.5-10.5v-73.851h20.466v73.851c0 5.799 4.701 10.5 10.5 10.5s10.5-4.701 10.5-10.5v-73.851h14.886v73.851c0 5.799 4.701 10.5 10.5 10.5s10.5-4.701 10.5-10.5v-73.851h20.429v73.851c0 5.799 4.701 10.5 10.5 10.5s10.5-4.701 10.5-10.5v-73.851h14.569v73.851c0 5.799 4.701 10.5 10.5 10.5s10.5-4.701 10.5-10.5v-73.851h27.535v73.851c0 5.799 4.701 10.5 10.5 10.5s10.5-4.701 10.5-10.5v-73.851h26.464v125.07c0 5.799 4.701 10.5 10.5 10.5s10.501-4.701 10.501-10.5z"/><path d="m10.5 143.57c5.799 0 10.5-4.701 10.5-10.5v-42.804c0-5.169 4.205-9.374 9.374-9.374h34.763c5.799 0 10.5-4.701 10.5-10.5s-4.701-10.5-10.5-10.5h-34.763c-16.749-.001-30.374 13.625-30.374 30.374v42.804c0 5.798 4.701 10.5 10.5 10.5z"/><path d="m65.137 387.184h-34.763c-5.169 0-9.374-4.205-9.374-9.374v-42.804c0-5.799-4.701-10.5-10.5-10.5s-10.5 4.701-10.5 10.5v42.804c0 16.748 13.625 30.374 30.374 30.374h34.763c5.799 0 10.5-4.701 10.5-10.5s-4.701-10.5-10.5-10.5z"/><path d="m437.701 59.892h-34.764c-5.799 0-10.5 4.701-10.5 10.5s4.701 10.5 10.5 10.5h34.764c5.169 0 9.374 4.205 9.374 9.374v42.804c0 5.799 4.701 10.5 10.5 10.5s10.5-4.701 10.5-10.5v-42.804c0-16.748-13.626-30.374-30.374-30.374z"/><path d="m457.575 324.506c-5.799 0-10.5 4.701-10.5 10.5v42.804c0 5.169-4.205 9.374-9.374 9.374h-34.764c-5.799 0-10.5 4.701-10.5 10.5s4.701 10.5 10.5 10.5h34.764c16.748 0 30.374-13.626 30.374-30.374v-42.804c0-5.799-4.701-10.5-10.5-10.5z"/><path d="m343.056 326.212h-236.989c-5.799 0-10.5 4.701-10.5 10.5s4.701 10.5 10.5 10.5h236.988c5.799 0 10.5-4.701 10.5-10.5.001-5.799-4.7-10.5-10.499-10.5z"/></svg>